{"accessors":[{"bufferView":0,"byteOffset":0,"componentType":5126,"count":245,"max":[0.10250000000000001,0.025,0.0],"min":[-0.10250000000000001,0.0245,-0.102326586222805],"type":"VEC3"},{"bufferView":0,"byteOffset":2940,"componentType":5126,"count":224,"max":[0.10350000000000001,0.025,0.0],"min":[-0.10350000000000001,0.0245,-0.10332489438107628],"type":"VEC3"},{"bufferView":0,"byteOffset":5628,"componentType":5126,"count":224,"max":[0.10350000000000001,-0.0245,0.0],"min":[-0.10350000000000001,-0.025,-0.10332489438107627],"type":"VEC3"},{"bufferView":0,"byteOffset":8316,"componentType":5126,"count":242,"max":[0.10250000000000001,-0.0245,0.0],"min":[-0.10250000000000001,-0.025,-0.1024874639560909],"type":"VEC3"},{"bufferView":0,"byteOffset":11220,"componentType":5126,"count":232,"max":[0.11750000000000001,0.025,0.0],"min":[-0.11750000000000001,0.019000000000000004,-0.11750000000000001],"type":"VEC3"},{"bufferView":0,"byteOffset":14004,"componentType":5126,"count":58,"max":[0.11750000000000001,0.019000000000000004,0.0],"min":[-0.11750000000000001,-0.019000000000000004,-0.11750000000000001],"type":"VEC3"},{"bufferView":0,"byteOffset":14700,"componentType":5126,"count":232,"max":[0.11750000000000001,-0.019000000000000004,0.0],"min":[-0.11750000000000001,-0.025,-0.11750000000000001],"type":"VEC3"},{"bufferView":0,"byteOffset":17484,"componentType":5126,"count":208,"max":[0.08950000000000001,0.025,0.0],"min":[-0.08950000000000001,0.023,-0.08932339219433033],"type":"VEC3"},{"bufferView":0,"byteOffset":19980,"componentType":5126,"count":49,"max":[0.08249999999999998,0.025,0.0],"min":[-0.08249999999999998,0.022000000000000007,-0.0825],"type":"VEC3"},{"bufferView":0,"byteOffset":20568,"componentType":5126,"count":52,"max":[0.08750000000000002,0.023,0.08732733873747378],"min":[-0.08750000000000002,0.022000000000000007,-1.0715659492539342e-17],"type":"VEC3"},{"bufferView":0,"byteOffset":21192,"componentType":5126,"count":170,"max":[0.07950000000000002,0.02500000000000001,0.07931466715064789],"min":[-0.07950000000000002,0.024999999999999996,-0.07931466715064789],"type":"VEC3"},{"bufferView":0,"byteOffset":23232,"componentType":5126,"count":102,"max":[0.10200000000000001,0.025,0.10200000000000001],"min":[-0.10200000000000001,0.025,-0.10200000000000001],"type":"VEC3"},{"bufferView":0,"byteOffset":24456,"componentType":5126,"count":52,"max":[0.08750000000000002,0.023,0.0],"min":[-0.08750000000000002,0.022000000000000007,-0.08732733873747378],"type":"VEC3"},{"bufferView":0,"byteOffset":25080,"componentType":5126,"count":98,"max":[0.08750000000000002,0.022000000000000007,0.08732733873747378],"min":[-0.08750000000000002,0.022000000000000007,-0.08732733873747378],"type":"VEC3"},{"bufferView":0,"byteOffset":26256,"componentType":5126,"count":49,"max":[0.08249999999999998,0.025,0.0825],"min":[-0.08249999999999998,0.022000000000000007,-1.0103336092965662e-17],"type":"VEC3"},{"bufferView":0,"byteOffset":26844,"componentType":5126,"count":208,"max":[0.08950000000000001,0.025,0.08932339219433033],"min":[-0.08950000000000001,0.023,-1.0960588852368813e-17],"type":"VEC3"},{"bufferView":0,"byteOffset":29340,"componentType":5126,"count":108,"max":[0.10300000000000001,0.0245,0.10282574030194064],"min":[-0.10300000000000001,0.0245,-0.10282574030194063],"type":"VEC3"},{"bufferView":0,"byteOffset":30636,"componentType":5126,"count":110,"max":[0.11149999999999999,-0.025,0.11149999999999999],"min":[-0.11149999999999999,-0.025,-0.11149999999999999],"type":"VEC3"},{"bufferView":0,"byteOffset":31956,"componentType":5126,"count":232,"max":[0.11750000000000001,-0.019000000000000004,0.11750000000000001],"min":[-0.11750000000000001,-0.025,-1.43895998899814e-17],"type":"VEC3"},{"bufferView":0,"byteOffset":34740,"componentType":5126,"count":58,"max":[0.11750000000000001,0.019000000000000004,0.11750000000000001],"min":[-0.11750000000000001,-0.019000000000000004,-1.43895998899814e-17],"type":"VEC3"},{"bufferView":0,"byteOffset":35436,"componentType":5126,"count":232,"max":[0.11750000000000001,0.025,0.11750000000000001],"min":[-0.11750000000000001,0.019000000000000004,-1.43895998899814e-17],"type":"VEC3"},{"bufferView":0,"byteOffset":38220,"componentType":5126,"count":110,"max":[0.11149999999999999,0.025,0.11149999999999999],"min":[-0.11149999999999999,0.025,-0.11149999999999999],"type":"VEC3"},{"bufferView":0,"byteOffset":39540,"componentType":5126,"count":108,"max":[0.10300000000000001,-0.0245,0.10282574030194064],"min":[-0.10300000000000001,-0.0245,-0.10282574030194063],"type":"VEC3"},{"bufferView":0,"byteOffset":40836,"componentType":5126,"count":52,"max":[0.10200000000000001,-0.025,0.10200000000000001],"min":[-0.10200000000000001,-0.025,-0.10200000000000001],"type":"VEC3"},{"bufferView":0,"byteOffset":41460,"componentType":5126,"count":242,"max":[0.10250000000000001,-0.0245,0.1024874639560909],"min":[-0.10250000000000001,-0.025,-1.255262969126037e-17],"type":"VEC3"},{"bufferView":0,"byteOffset":44364,"componentType":5126,"count":224,"max":[0.10350000000000001,-0.0245,0.10332489438107628],"min":[-0.10350000000000001,-0.025,-1.2675094371175106e-17],"type":"VEC3"},{"bufferView":0,"byteOffset":47052,"componentType":5126,"count":224,"max":[0.10350000000000001,0.025,0.10332489438107627],"min":[-0.10350000000000001,0.0245,-1.2675094371175106e-17],"type":"VEC3"},{"bufferView":0,"byteOffset":49740,"componentType":5126,"count":245,"max":[0.10250000000000001,0.025,0.10232658622280501],"min":[-0.10250000000000001,0.0245,-1.255262969126037e-17],"type":"VEC3"},{"bufferView":0,"byteOffset":52680,"componentType":5126,"count":29,"max":[0.003250000000000002,0.02550000000000001,-0.016766997788107957],"min":[-0.003250000000000003,0.0255,-0.06525025939693979],"type":"VEC3"},{"bufferView":0,"byteOffset":53028,"componentType":5126,"count":77,"max":[0.005000000000000001,0.025500000000000007,-0.015026570051882712],"min":[-0.005000000000000002,0.024999999999999999,-0.02000000000000001],"type":"VEC3"},{"bufferView":0,"byteOffset":53952,"componentType":5126,"count":25,"max":[-0.003250000000000003,0.025500000000000007,-0.02],"min":[-0.005000000000000002,0.025,-0.065],"type":"VEC3"},{"bufferView":0,"byteOffset":54252,"componentType":5126,"count":23,"max":[0.005000000000000001,0.025500000000000007,-0.02],"min":[0.003249999999999999,0.025,-0.05000000000000001],"type":"VEC3"},{"bufferView":0,"byteOffset":54528,"componentType":5126,"count":42,"max":[-0.00155172413793104,0.025500000000000007,-0.065],"min":[-0.005000000000000002,0.024999999999999996,-0.06699980936568288],"type":"VEC3"},{"bufferView":0,"byteOffset":55032,"componentType":5126,"count":38,"max":[0.0049999999999999979,0.02550000000000001,-0.049999999999999999],"min":[-0.0028189655172413845,0.025,-0.0663793103448276],"type":"VEC3"},{"bufferView":0,"byteOffset":55488,"componentType":5126,"count":29,"max":[-0.016766997788106046,0.025500000000000007,0.0032499999999997927],"min":[-0.0652502593969399,0.025500000000000003,-0.003250000000000523],"type":"VEC3"},{"bufferView":0,"byteOffset":55836,"componentType":5126,"count":29,"max":[0.003250000000000003,0.025500000000000007,0.0652502593969397],"min":[-0.0032500000000000018,0.0255,0.016766997788110344],"type":"VEC3"},{"bufferView":0,"byteOffset":56184,"componentType":5126,"count":29,"max":[0.06525025939693959,0.025500000000000007,0.003250000000000173],"min":[0.016766997788111253,0.025500000000000003,-0.003249999999999932],"type":"VEC3"},{"bufferView":0,"byteOffset":56532,"componentType":5126,"count":77,"max":[0.02000000000000002,0.025500000000000007,0.005000000000000071],"min":[0.015026570051880144,0.025,-0.004999999999999932],"type":"VEC3"},{"bufferView":0,"byteOffset":57456,"componentType":5126,"count":25,"max":[0.06500000000000002,0.025500000000000007,-0.003249999999999775],"min":[0.020000000000000016,0.025,-0.004999999999999932],"type":"VEC3"},{"bufferView":0,"byteOffset":57756,"componentType":5126,"count":23,"max":[0.049999999999999978,0.025500000000000007,0.005000000000000172],"min":[0.019999999999999984,0.025,0.0032500000000000716],"type":"VEC3"},{"bufferView":0,"byteOffset":58032,"componentType":5126,"count":42,"max":[0.06699980936568308,0.025500000000000007,-0.0015517241379308083],"min":[0.065,0.024999999999999996,-0.004999999999999775],"type":"VEC3"},{"bufferView":0,"byteOffset":58536,"componentType":5126,"count":38,"max":[0.0663793103448276,0.025500000000000007,0.005000000000000172],"min":[0.049999999999999978,0.024999999999999999,-0.0028189655172411477],"type":"VEC3"},{"bufferView":0,"byteOffset":58992,"componentType":5126,"count":77,"max":[0.005000000000000002,0.025500000000000007,0.020000000000000005],"min":[-0.005000000000000001,0.025,0.015026570051886729],"type":"VEC3"},{"bufferView":0,"byteOffset":59916,"componentType":5126,"count":25,"max":[0.005000000000000002,0.025500000000000007,0.065],"min":[0.003250000000000003,0.025,0.02],"type":"VEC3"},{"bufferView":0,"byteOffset":60216,"componentType":5126,"count":23,"max":[-0.003249999999999999,0.025500000000000007,0.05],"min":[-0.005000000000000001,0.025,0.02],"type":"VEC3"},{"bufferView":0,"byteOffset":60492,"componentType":5126,"count":42,"max":[0.005000000000000002,0.025500000000000007,0.06699980936568303],"min":[0.00155172413793104,0.024999999999999999,0.065],"type":"VEC3"},{"bufferView":0,"byteOffset":60996,"componentType":5126,"count":38,"max":[0.002818965517241375,0.025500000000000007,0.0663793103448276],"min":[-0.0049999999999999979,0.024999999999999999,0.049999999999999999],"type":"VEC3"},{"bufferView":0,"byteOffset":61452,"componentType":5126,"count":77,"max":[-0.015026570051879055,0.025500000000000007,0.004999999999999792],"min":[-0.02000000000000006,0.025,-0.005000000000000211],"type":"VEC3"},{"bufferView":0,"byteOffset":62376,"componentType":5126,"count":25,"max":[-0.020000000000000043,0.025500000000000007,0.004999999999999792],"min":[-0.06500000000000006,0.025,0.003249999999999321],"type":"VEC3"},{"bufferView":0,"byteOffset":62676,"componentType":5126,"count":23,"max":[-0.01999999999999995,0.025500000000000007,-0.003250000000000211],"min":[-0.049999999999999978,0.025,-0.005000000000000521],"type":"VEC3"},{"bufferView":0,"byteOffset":62952,"componentType":5126,"count":42,"max":[-0.06500000000000003,0.025500000000000007,0.004999999999999321],"min":[-0.0669998093656831,0.024999999999999996,0.0015517241379303449],"type":"VEC3"},{"bufferView":0,"byteOffset":63456,"componentType":5126,"count":38,"max":[-0.04999999999999995,0.025500000000000007,0.002818965517240703],"min":[-0.06637931034482761,0.025,-0.005000000000000521],"type":"VEC3"},{"bufferView":1,"byteOffset":0,"componentType":5126,"count":245,"type":"VEC3"},{"bufferView":1,"byteOffset":2940,"componentType":5126,"count":224,"type":"VEC3"},{"bufferView":1,"byteOffset":5628,"componentType":5126,"count":224,"type":"VEC3"},{"bufferView":1,"byteOffset":8316,"componentType":5126,"count":242,"type":"VEC3"},{"bufferView":1,"byteOffset":11220,"componentType":5126,"count":232,"type":"VEC3"},{"bufferView":1,"byteOffset":14004,"componentType":5126,"count":58,"type":"VEC3"},{"bufferView":1,"byteOffset":14700,"componentType":5126,"count":232,"type":"VEC3"},{"bufferView":1,"byteOffset":17484,"componentType":5126,"count":208,"type":"VEC3"},{"bufferView":1,"byteOffset":19980,"componentType":5126,"count":49,"type":"VEC3"},{"bufferView":1,"byteOffset":20568,"componentType":5126,"count":52,"type":"VEC3"},{"bufferView":1,"byteOffset":21192,"componentType":5126,"count":170,"type":"VEC3"},{"bufferView":1,"byteOffset":23232,"componentType":5126,"count":102,"type":"VEC3"},{"bufferView":1,"byteOffset":24456,"componentType":5126,"count":52,"type":"VEC3"},{"bufferView":1,"byteOffset":25080,"componentType":5126,"count":98,"type":"VEC3"},{"bufferView":1,"byteOffset":26256,"componentType":5126,"count":49,"type":"VEC3"},{"bufferView":1,"byteOffset":26844,"componentType":5126,"count":208,"type":"VEC3"},{"bufferView":1,"byteOffset":29340,"componentType":5126,"count":108,"type":"VEC3"},{"bufferView":1,"byteOffset":30636,"componentType":5126,"count":110,"type":"VEC3"},{"bufferView":1,"byteOffset":31956,"componentType":5126,"count":232,"type":"VEC3"},{"bufferView":1,"byteOffset":34740,"componentType":5126,"count":58,"type":"VEC3"},{"bufferView":1,"byteOffset":35436,"componentType":5126,"count":232,"type":"VEC3"},{"bufferView":1,"byteOffset":38220,"componentType":5126,"count":110,"type":"VEC3"},{"bufferView":1,"byteOffset":39540,"componentType":5126,"count":108,"type":"VEC3"},{"bufferView":1,"byteOffset":40836,"componentType":5126,"count":52,"type":"VEC3"},{"bufferView":1,"byteOffset":41460,"componentType":5126,"count":242,"type":"VEC3"},{"bufferView":1,"byteOffset":44364,"componentType":5126,"count":224,"type":"VEC3"},{"bufferView":1,"byteOffset":47052,"componentType":5126,"count":224,"type":"VEC3"},{"bufferView":1,"byteOffset":49740,"componentType":5126,"count":245,"type":"VEC3"},{"bufferView":1,"byteOffset":52680,"componentType":5126,"count":29,"type":"VEC3"},{"bufferView":1,"byteOffset":53028,"componentType":5126,"count":77,"type":"VEC3"},{"bufferView":1,"byteOffset":53952,"componentType":5126,"count":25,"type":"VEC3"},{"bufferView":1,"byteOffset":54252,"componentType":5126,"count":23,"type":"VEC3"},{"bufferView":1,"byteOffset":54528,"componentType":5126,"count":42,"type":"VEC3"},{"bufferView":1,"byteOffset":55032,"componentType":5126,"count":38,"type":"VEC3"},{"bufferView":1,"byteOffset":55488,"componentType":5126,"count":29,"type":"VEC3"},{"bufferView":1,"byteOffset":55836,"componentType":5126,"count":29,"type":"VEC3"},{"bufferView":1,"byteOffset":56184,"componentType":5126,"count":29,"type":"VEC3"},{"bufferView":1,"byteOffset":56532,"componentType":5126,"count":77,"type":"VEC3"},{"bufferView":1,"byteOffset":57456,"componentType":5126,"count":25,"type":"VEC3"},{"bufferView":1,"byteOffset":57756,"componentType":5126,"count":23,"type":"VEC3"},{"bufferView":1,"byteOffset":58032,"componentType":5126,"count":42,"type":"VEC3"},{"bufferView":1,"byteOffset":58536,"componentType":5126,"count":38,"type":"VEC3"},{"bufferView":1,"byteOffset":58992,"componentType":5126,"count":77,"type":"VEC3"},{"bufferView":1,"byteOffset":59916,"componentType":5126,"count":25,"type":"VEC3"},{"bufferView":1,"byteOffset":60216,"componentType":5126,"count":23,"type":"VEC3"},{"bufferView":1,"byteOffset":60492,"componentType":5126,"count":42,"type":"VEC3"},{"bufferView":1,"byteOffset":60996,"componentType":5126,"count":38,"type":"VEC3"},{"bufferView":1,"byteOffset":61452,"componentType":5126,"count":77,"type":"VEC3"},{"bufferView":1,"byteOffset":62376,"componentType":5126,"count":25,"type":"VEC3"},{"bufferView":1,"byteOffset":62676,"componentType":5126,"count":23,"type":"VEC3"},{"bufferView":1,"byteOffset":62952,"componentType":5126,"count":42,"type":"VEC3"},{"bufferView":1,"byteOffset":63456,"componentType":5126,"count":38,"type":"VEC3"},{"bufferView":2,"byteOffset":0,"componentType":5123,"count":1263,"type":"SCALAR"},{"bufferView":2,"byteOffset":2528,"componentType":5123,"count":1134,"type":"SCALAR"},{"bufferView":2,"byteOffset":4796,"componentType":5123,"count":1134,"type":"SCALAR"},{"bufferView":2,"byteOffset":7064,"componentType":5123,"count":1245,"type":"SCALAR"},{"bufferView":2,"byteOffset":9556,"componentType":5123,"count":1176,"type":"SCALAR"},{"bufferView":2,"byteOffset":11908,"componentType":5123,"count":168,"type":"SCALAR"},{"bufferView":2,"byteOffset":12244,"componentType":5123,"count":1176,"type":"SCALAR"},{"bufferView":2,"byteOffset":14596,"componentType":5123,"count":1050,"type":"SCALAR"},{"bufferView":2,"byteOffset":16696,"componentType":5123,"count":141,"type":"SCALAR"},{"bufferView":2,"byteOffset":16980,"componentType":5123,"count":150,"type":"SCALAR"},{"bufferView":2,"byteOffset":17280,"componentType":5123,"count":528,"type":"SCALAR"},{"bufferView":2,"byteOffset":18336,"componentType":5123,"count":306,"type":"SCALAR"},{"bufferView":2,"byteOffset":18948,"componentType":5123,"count":150,"type":"SCALAR"},{"bufferView":2,"byteOffset":19248,"componentType":5123,"count":294,"type":"SCALAR"},{"bufferView":2,"byteOffset":19836,"componentType":5123,"count":141,"type":"SCALAR"},{"bufferView":2,"byteOffset":20120,"componentType":5123,"count":1050,"type":"SCALAR"},{"bufferView":2,"byteOffset":22220,"componentType":5123,"count":324,"type":"SCALAR"},{"bufferView":2,"byteOffset":22868,"componentType":5123,"count":330,"type":"SCALAR"},{"bufferView":2,"byteOffset":23528,"componentType":5123,"count":1176,"type":"SCALAR"},{"bufferView":2,"byteOffset":25880,"componentType":5123,"count":168,"type":"SCALAR"},{"bufferView":2,"byteOffset":26216,"componentType":5123,"count":1176,"type":"SCALAR"},{"bufferView":2,"byteOffset":28568,"componentType":5123,"count":330,"type":"SCALAR"},{"bufferView":2,"byteOffset":29228,"componentType":5123,"count":324,"type":"SCALAR"},{"bufferView":2,"byteOffset":29876,"componentType":5123,"count":150,"type":"SCALAR"},{"bufferView":2,"byteOffset":30176,"componentType":5123,"count":1245,"type":"SCALAR"},{"bufferView":2,"byteOffset":32668,"componentType":5123,"count":1134,"type":"SCALAR"},{"bufferView":2,"byteOffset":34936,"componentType":5123,"count":1134,"type":"SCALAR"},{"bufferView":2,"byteOffset":37204,"componentType":5123,"count":1263,"type":"SCALAR"},{"bufferView":2,"byteOffset":39732,"componentType":5123,"count":81,"type":"SCALAR"},{"bufferView":2,"byteOffset":39896,"componentType":5123,"count":333,"type":"SCALAR"},{"bufferView":2,"byteOffset":40564,"componentType":5123,"count":90,"type":"SCALAR"},{"bufferView":2,"byteOffset":40744,"componentType":5123,"count":84,"type":"SCALAR"},{"bufferView":2,"byteOffset":40912,"componentType":5123,"count":132,"type":"SCALAR"},{"bufferView":2,"byteOffset":41176,"componentType":5123,"count":153,"type":"SCALAR"},{"bufferView":2,"byteOffset":41484,"componentType":5123,"count":81,"type":"SCALAR"},{"bufferView":2,"byteOffset":41648,"componentType":5123,"count":81,"type":"SCALAR"},{"bufferView":2,"byteOffset":41812,"componentType":5123,"count":81,"type":"SCALAR"},{"bufferView":2,"byteOffset":41976,"componentType":5123,"count":333,"type":"SCALAR"},{"bufferView":2,"byteOffset":42644,"componentType":5123,"count":90,"type":"SCALAR"},{"bufferView":2,"byteOffset":42824,"componentType":5123,"count":84,"type":"SCALAR"},{"bufferView":2,"byteOffset":42992,"componentType":5123,"count":132,"type":"SCALAR"},{"bufferView":2,"byteOffset":43256,"componentType":5123,"count":153,"type":"SCALAR"},{"bufferView":2,"byteOffset":43564,"componentType":5123,"count":333,"type":"SCALAR"},{"bufferView":2,"byteOffset":44232,"componentType":5123,"count":90,"type":"SCALAR"},{"bufferView":2,"byteOffset":44412,"componentType":5123,"count":84,"type":"SCALAR"},{"bufferView":2,"byteOffset":44580,"componentType":5123,"count":132,"type":"SCALAR"},{"bufferView":2,"byteOffset":44844,"componentType":5123,"count":153,"type":"SCALAR"},{"bufferView":2,"byteOffset":45152,"componentType":5123,"count":333,"type":"SCALAR"},{"bufferView":2,"byteOffset":45820,"componentType":5123,"count":90,"type":"SCALAR"},{"bufferView":2,"byteOffset":46000,"componentType":5123,"count":84,"type":"SCALAR"},{"bufferView":2,"byteOffset":46168,"componentType":5123,"count":132,"type":"SCALAR"},{"bufferView":2,"byteOffset":46432,"componentType":5123,"count":153,"type":"SCALAR"}],"asset":{"generator":"Open CASCADE Technology 7.7 [dev.opencascade.org]","version":"2.0"},"bufferViews":[{"buffer":0,"byteLength":63912,"byteOffset":0,"byteStride":12,"target":34962},{"buffer":0,"byteLength":63912,"byteOffset":63912,"byteStride":12,"target":34962},{"buffer":0,"byteLength":46740,"byteOffset":127824,"target":34963}],"buffers":[{"byteLength":174564,"uri":"WHEEL.bin"}],"materials":[{"name":"mat_0","pbrMetallicRoughness":{"baseColorFactor":[0.01032982300966978,0.01032982300966978,0.01032982300966978,1.0]},"doubleSided":true},{"name":"mat_1","pbrMetallicRoughness":{"baseColorFactor":[0.07227185368537903,0.07227185368537903,0.07227185368537903,1.0]},"doubleSided":true},{"name":"mat_2","pbrMetallicRoughness":{"baseColorFactor":[1.0,1.0,1.0,1.0]},"doubleSided":true}],"meshes":[{"name":"WHEEL","primitives":[{"attributes":{"NORMAL":52,"POSITION":0},"indices":104,"material":0,"mode":4},{"attributes":{"NORMAL":53,"POSITION":1},"indices":105,"material":1,"mode":4},{"attributes":{"NORMAL":54,"POSITION":2},"indices":106,"material":1,"mode":4},{"attributes":{"NORMAL":55,"POSITION":3},"indices":107,"material":0,"mode":4},{"attributes":{"NORMAL":56,"POSITION":4},"indices":108,"material":1,"mode":4},{"attributes":{"NORMAL":57,"POSITION":5},"indices":109,"material":1,"mode":4},{"attributes":{"NORMAL":58,"POSITION":6},"indices":110,"material":1,"mode":4},{"attributes":{"NORMAL":59,"POSITION":7},"indices":111,"material":0,"mode":4},{"attributes":{"NORMAL":60,"POSITION":8},"indices":112,"material":0,"mode":4},{"attributes":{"NORMAL":61,"POSITION":9},"indices":113,"material":0,"mode":4},{"attributes":{"NORMAL":62,"POSITION":10},"indices":114,"material":0,"mode":4},{"attributes":{"NORMAL":63,"POSITION":11},"indices":115,"material":0,"mode":4},{"attributes":{"NORMAL":64,"POSITION":12},"indices":116,"material":0,"mode":4},{"attributes":{"NORMAL":65,"POSITION":13},"indices":117,"material":0,"mode":4},{"attributes":{"NORMAL":66,"POSITION":14},"indices":118,"material":0,"mode":4},{"attributes":{"NORMAL":67,"POSITION":15},"indices":119,"material":0,"mode":4},{"attributes":{"NORMAL":68,"POSITION":16},"indices":120,"material":0,"mode":4},{"attributes":{"NORMAL":69,"POSITION":17},"indices":121,"material":1,"mode":4},{"attributes":{"NORMAL":70,"POSITION":18},"indices":122,"material":1,"mode":4},{"attributes":{"NORMAL":71,"POSITION":19},"indices":123,"material":1,"mode":4},{"attributes":{"NORMAL":72,"POSITION":20},"indices":124,"material":1,"mode":4},{"attributes":{"NORMAL":73,"POSITION":21},"indices":125,"material":1,"mode":4},{"attributes":{"NORMAL":74,"POSITION":22},"indices":126,"material":0,"mode":4},{"attributes":{"NORMAL":75,"POSITION":23},"indices":127,"material":0,"mode":4},{"attributes":{"NORMAL":76,"POSITION":24},"indices":128,"material":0,"mode":4},{"attributes":{"NORMAL":77,"POSITION":25},"indices":129,"material":1,"mode":4},{"attributes":{"NORMAL":78,"POSITION":26},"indices":130,"material":1,"mode":4},{"attributes":{"NORMAL":79,"POSITION":27},"indices":131,"material":0,"mode":4},{"attributes":{"NORMAL":80,"POSITION":28},"indices":132,"material":2,"mode":4},{"attributes":{"NORMAL":81,"POSITION":29},"indices":133,"material":2,"mode":4},{"attributes":{"NORMAL":82,"POSITION":30},"indices":134,"material":2,"mode":4},{"attributes":{"NORMAL":83,"POSITION":31},"indices":135,"material":2,"mode":4},{"attributes":{"NORMAL":84,"POSITION":32},"indices":136,"material":2,"mode":4},{"attributes":{"NORMAL":85,"POSITION":33},"indices":137,"material":2,"mode":4},{"attributes":{"NORMAL":86,"POSITION":34},"indices":138,"material":2,"mode":4},{"attributes":{"NORMAL":87,"POSITION":35},"indices":139,"material":2,"mode":4},{"attributes":{"NORMAL":88,"POSITION":36},"indices":140,"material":2,"mode":4},{"attributes":{"NORMAL":89,"POSITION":37},"indices":141,"material":2,"mode":4},{"attributes":{"NORMAL":90,"POSITION":38},"indices":142,"material":2,"mode":4},{"attributes":{"NORMAL":91,"POSITION":39},"indices":143,"material":2,"mode":4},{"attributes":{"NORMAL":92,"POSITION":40},"indices":144,"material":2,"mode":4},{"attributes":{"NORMAL":93,"POSITION":41},"indices":145,"material":2,"mode":4},{"attributes":{"NORMAL":94,"POSITION":42},"indices":146,"material":2,"mode":4},{"attributes":{"NORMAL":95,"POSITION":43},"indices":147,"material":2,"mode":4},{"attributes":{"NORMAL":96,"POSITION":44},"indices":148,"material":2,"mode":4},{"attributes":{"NORMAL":97,"POSITION":45},"indices":149,"material":2,"mode":4},{"attributes":{"NORMAL":98,"POSITION":46},"indices":150,"material":2,"mode":4},{"attributes":{"NORMAL":99,"POSITION":47},"indices":151,"material":2,"mode":4},{"attributes":{"NORMAL":100,"POSITION":48},"indices":152,"material":2,"mode":4},{"attributes":{"NORMAL":101,"POSITION":49},"indices":153,"material":2,"mode":4},{"attributes":{"NORMAL":102,"POSITION":50},"indices":154,"material":2,"mode":4},{"attributes":{"NORMAL":103,"POSITION":51},"indices":155,"material":2,"mode":4}]}],"nodes":[{"mesh":0,"name":"WHEEL"}],"scene":0,"scenes":[{"nodes":[0]}]}