{"accessors":[{"bufferView":0,"byteOffset":0,"componentType":5126,"count":1164,"max":[0.05000000000000001,-0.005,0.1899433669591504],"min":[-0.04999999999999998,-0.02673952710286554,0.13999999999999963],"type":"VEC3"},{"bufferView":0,"byteOffset":13968,"componentType":5126,"count":28,"max":[0.05000000000000001,-0.005,0.14000000000000005],"min":[-0.04999999999999998,-0.02673952710286554,0.13999999999999963],"type":"VEC3"},{"bufferView":0,"byteOffset":14304,"componentType":5126,"count":34,"max":[0.05000000000000001,-0.005,0.1899433669591504],"min":[-0.04999999999999998,-0.005,0.14],"type":"VEC3"},{"bufferView":0,"byteOffset":14712,"componentType":5126,"count":213,"max":[0.03750000000000002,0.01,0.17737191848775014],"min":[-0.03749999999999998,0.005,0.14],"type":"VEC3"},{"bufferView":0,"byteOffset":17268,"componentType":5126,"count":38,"max":[0.03250000000000002,0.015,0.14],"min":[-0.03249999999999998,0.01,0.1075],"type":"VEC3"},{"bufferView":0,"byteOffset":17724,"componentType":5126,"count":681,"max":[0.05,0.050000040481301879,0.02500000000000001],"min":[-0.049999999999999999,-0.004999984731441929,0.009999999999999999],"type":"VEC3"},{"bufferView":0,"byteOffset":25896,"componentType":5126,"count":46,"max":[0.05,0.050000040481301879,0.010000000000000006],"min":[-5.503580164767102e-18,-0.0500000440515505,0.0],"type":"VEC3"},{"bufferView":0,"byteOffset":26448,"componentType":5126,"count":47,"max":[6.123233995736766e-18,0.050000040481301879,0.010000000000000006],"min":[-0.05,-0.0500000440515505,0.0],"type":"VEC3"},{"bufferView":0,"byteOffset":27012,"componentType":5126,"count":44,"max":[0.05,0.05,0.0],"min":[-0.05,-0.05,0.0],"type":"VEC3"},{"bufferView":0,"byteOffset":27540,"componentType":5126,"count":390,"max":[0.05,0.00004118444356826807,0.02500000000000001],"min":[-0.04999999999999999,-0.0500000440515505,0.009999999999999992],"type":"VEC3"},{"bufferView":0,"byteOffset":32220,"componentType":5126,"count":23,"max":[0.05,-0.005,0.19],"min":[-0.04999999999999999,-0.005,0.14],"type":"VEC3"},{"bufferView":0,"byteOffset":32496,"componentType":5126,"count":4,"max":[-0.04999999999999998,0.003,0.14],"min":[-0.049999999999999999,-0.005,0.02500000000000001],"type":"VEC3"},{"bufferView":0,"byteOffset":32544,"componentType":5126,"count":46,"max":[0.05000000000000002,0.003,0.19],"min":[-0.04999999999999999,-0.005,0.14],"type":"VEC3"},{"bufferView":0,"byteOffset":33096,"componentType":5126,"count":5,"max":[0.05000000000000002,0.003,0.14],"min":[0.049999999999999999,-0.005,0.02500000000000001],"type":"VEC3"},{"bufferView":0,"byteOffset":33156,"componentType":5126,"count":63,"max":[0.04800000000000002,0.005,0.188],"min":[-0.047999999999999997,0.005,0.02500000000000001],"type":"VEC3"},{"bufferView":0,"byteOffset":33912,"componentType":5126,"count":42,"max":[0.05,-0.004999984731441929,0.14],"min":[-0.04999999999999999,-0.026711236228458038,0.02500000000000001],"type":"VEC3"},{"bufferView":0,"byteOffset":34416,"componentType":5126,"count":21,"max":[0.05,-0.005,0.14],"min":[-0.04999999999999999,-0.026711236228458038,0.14],"type":"VEC3"},{"bufferView":0,"byteOffset":34668,"componentType":5126,"count":36,"max":[-0.047999999999999997,0.005,0.14],"min":[-0.049999999999999999,0.003,0.025000000000000006],"type":"VEC3"},{"bufferView":0,"byteOffset":35100,"componentType":5126,"count":184,"max":[0.05000000000000002,0.005,0.19],"min":[-0.04999999999999998,0.003,0.14],"type":"VEC3"},{"bufferView":0,"byteOffset":37308,"componentType":5126,"count":36,"max":[0.05000000000000002,0.005,0.14],"min":[0.047999999999999969,0.003,0.02500000000000001],"type":"VEC3"},{"bufferView":0,"byteOffset":37740,"componentType":5126,"count":38,"max":[0.03250000000000002,0.015,0.17250000000000002],"min":[-0.03249999999999998,0.01,0.14],"type":"VEC3"},{"bufferView":0,"byteOffset":38196,"componentType":5126,"count":36,"max":[0.03250000000000002,0.015,0.17250000000000002],"min":[-0.03249999999999998,0.015,0.1075],"type":"VEC3"},{"bufferView":0,"byteOffset":38628,"componentType":5126,"count":213,"max":[0.03750000000000002,0.01,0.14],"min":[-0.03749999999999998,0.005,0.10262808151224988],"type":"VEC3"},{"bufferView":1,"byteOffset":0,"componentType":5126,"count":1164,"type":"VEC3"},{"bufferView":1,"byteOffset":13968,"componentType":5126,"count":28,"type":"VEC3"},{"bufferView":1,"byteOffset":14304,"componentType":5126,"count":34,"type":"VEC3"},{"bufferView":1,"byteOffset":14712,"componentType":5126,"count":213,"type":"VEC3"},{"bufferView":1,"byteOffset":17268,"componentType":5126,"count":38,"type":"VEC3"},{"bufferView":1,"byteOffset":17724,"componentType":5126,"count":681,"type":"VEC3"},{"bufferView":1,"byteOffset":25896,"componentType":5126,"count":46,"type":"VEC3"},{"bufferView":1,"byteOffset":26448,"componentType":5126,"count":47,"type":"VEC3"},{"bufferView":1,"byteOffset":27012,"componentType":5126,"count":44,"type":"VEC3"},{"bufferView":1,"byteOffset":27540,"componentType":5126,"count":390,"type":"VEC3"},{"bufferView":1,"byteOffset":32220,"componentType":5126,"count":23,"type":"VEC3"},{"bufferView":1,"byteOffset":32496,"componentType":5126,"count":4,"type":"VEC3"},{"bufferView":1,"byteOffset":32544,"componentType":5126,"count":46,"type":"VEC3"},{"bufferView":1,"byteOffset":33096,"componentType":5126,"count":5,"type":"VEC3"},{"bufferView":1,"byteOffset":33156,"componentType":5126,"count":63,"type":"VEC3"},{"bufferView":1,"byteOffset":33912,"componentType":5126,"count":42,"type":"VEC3"},{"bufferView":1,"byteOffset":34416,"componentType":5126,"count":21,"type":"VEC3"},{"bufferView":1,"byteOffset":34668,"componentType":5126,"count":36,"type":"VEC3"},{"bufferView":1,"byteOffset":35100,"componentType":5126,"count":184,"type":"VEC3"},{"bufferView":1,"byteOffset":37308,"componentType":5126,"count":36,"type":"VEC3"},{"bufferView":1,"byteOffset":37740,"componentType":5126,"count":38,"type":"VEC3"},{"bufferView":1,"byteOffset":38196,"componentType":5126,"count":36,"type":"VEC3"},{"bufferView":1,"byteOffset":38628,"componentType":5126,"count":213,"type":"VEC3"},{"bufferView":2,"byteOffset":0,"componentType":5123,"count":6792,"type":"SCALAR"},{"bufferView":2,"byteOffset":13584,"componentType":5123,"count":78,"type":"SCALAR"},{"bufferView":2,"byteOffset":13740,"componentType":5123,"count":96,"type":"SCALAR"},{"bufferView":2,"byteOffset":13932,"componentType":5123,"count":1119,"type":"SCALAR"},{"bufferView":2,"byteOffset":16172,"componentType":5123,"count":108,"type":"SCALAR"},{"bufferView":2,"byteOffset":16388,"componentType":5123,"count":3831,"type":"SCALAR"},{"bufferView":2,"byteOffset":24052,"componentType":5123,"count":132,"type":"SCALAR"},{"bufferView":2,"byteOffset":24316,"componentType":5123,"count":135,"type":"SCALAR"},{"bufferView":2,"byteOffset":24588,"componentType":5123,"count":126,"type":"SCALAR"},{"bufferView":2,"byteOffset":24840,"componentType":5123,"count":2196,"type":"SCALAR"},{"bufferView":2,"byteOffset":29232,"componentType":5123,"count":63,"type":"SCALAR"},{"bufferView":2,"byteOffset":29360,"componentType":5123,"count":6,"type":"SCALAR"},{"bufferView":2,"byteOffset":29372,"componentType":5123,"count":132,"type":"SCALAR"},{"bufferView":2,"byteOffset":29636,"componentType":5123,"count":9,"type":"SCALAR"},{"bufferView":2,"byteOffset":29656,"componentType":5123,"count":189,"type":"SCALAR"},{"bufferView":2,"byteOffset":30036,"componentType":5123,"count":120,"type":"SCALAR"},{"bufferView":2,"byteOffset":30276,"componentType":5123,"count":57,"type":"SCALAR"},{"bufferView":2,"byteOffset":30392,"componentType":5123,"count":102,"type":"SCALAR"},{"bufferView":2,"byteOffset":30596,"componentType":5123,"count":924,"type":"SCALAR"},{"bufferView":2,"byteOffset":32444,"componentType":5123,"count":102,"type":"SCALAR"},{"bufferView":2,"byteOffset":32648,"componentType":5123,"count":108,"type":"SCALAR"},{"bufferView":2,"byteOffset":32864,"componentType":5123,"count":102,"type":"SCALAR"},{"bufferView":2,"byteOffset":33068,"componentType":5123,"count":1119,"type":"SCALAR"}],"asset":{"generator":"Open CASCADE Technology 7.7 [dev.opencascade.org]","version":"2.0"},"bufferViews":[{"buffer":0,"byteLength":41184,"byteOffset":0,"byteStride":12,"target":34962},{"buffer":0,"byteLength":41184,"byteOffset":41184,"byteStride":12,"target":34962},{"buffer":0,"byteLength":35308,"byteOffset":82368,"target":34963}],"buffers":[{"byteLength":117676,"uri":"WHEEL_JOINT.bin"}],"materials":[{"name":"mat_0","pbrMetallicRoughness":{"baseColorFactor":[0.07227185368537903,0.07227185368537903,0.07227185368537903,1.0]},"doubleSided":true}],"meshes":[{"name":"WHEEL_JOINT","primitives":[{"attributes":{"NORMAL":23,"POSITION":0},"indices":46,"material":0,"mode":4},{"attributes":{"NORMAL":24,"POSITION":1},"indices":47,"material":0,"mode":4},{"attributes":{"NORMAL":25,"POSITION":2},"indices":48,"material":0,"mode":4}]},{"name":"WHEEL_JOINT001","primitives":[{"attributes":{"NORMAL":26,"POSITION":3},"indices":49,"material":0,"mode":4},{"attributes":{"NORMAL":27,"POSITION":4},"indices":50,"material":0,"mode":4},{"attributes":{"NORMAL":28,"POSITION":5},"indices":51,"material":0,"mode":4},{"attributes":{"NORMAL":29,"POSITION":6},"indices":52,"material":0,"mode":4},{"attributes":{"NORMAL":30,"POSITION":7},"indices":53,"material":0,"mode":4},{"attributes":{"NORMAL":31,"POSITION":8},"indices":54,"material":0,"mode":4},{"attributes":{"NORMAL":32,"POSITION":9},"indices":55,"material":0,"mode":4},{"attributes":{"NORMAL":33,"POSITION":10},"indices":56,"material":0,"mode":4},{"attributes":{"NORMAL":34,"POSITION":11},"indices":57,"material":0,"mode":4},{"attributes":{"NORMAL":35,"POSITION":12},"indices":58,"material":0,"mode":4},{"attributes":{"NORMAL":36,"POSITION":13},"indices":59,"material":0,"mode":4},{"attributes":{"NORMAL":37,"POSITION":14},"indices":60,"material":0,"mode":4},{"attributes":{"NORMAL":38,"POSITION":15},"indices":61,"material":0,"mode":4},{"attributes":{"NORMAL":39,"POSITION":16},"indices":62,"material":0,"mode":4},{"attributes":{"NORMAL":40,"POSITION":17},"indices":63,"material":0,"mode":4},{"attributes":{"NORMAL":41,"POSITION":18},"indices":64,"material":0,"mode":4},{"attributes":{"NORMAL":42,"POSITION":19},"indices":65,"material":0,"mode":4},{"attributes":{"NORMAL":43,"POSITION":20},"indices":66,"material":0,"mode":4},{"attributes":{"NORMAL":44,"POSITION":21},"indices":67,"material":0,"mode":4},{"attributes":{"NORMAL":45,"POSITION":22},"indices":68,"material":0,"mode":4}]}],"nodes":[{"children":[1,2],"name":"WHEEL_JOINT002"},{"mesh":0,"name":"WHEEL_JOINT"},{"mesh":1,"name":"WHEEL_JOINT001"}],"scene":0,"scenes":[{"nodes":[0]}]}